<svg width="20" height="21" viewBox="0 0 20 21" fill="none" xmlns="http://www.w3.org/2000/svg">
<path fill-rule="evenodd" clip-rule="evenodd" d="M18.75 10.5C18.75 11.7275 18.16 12.8175 17.2475 13.5025C17.3307 14.0791 17.2782 14.6671 17.0942 15.2198C16.9102 15.7725 16.5997 16.2746 16.1875 16.6863C15.7759 17.0989 15.2736 17.4097 14.7206 17.5939C14.1677 17.7781 13.5794 17.8307 13.0025 17.7475C12.6535 18.2143 12.2003 18.5932 11.6791 18.8541C11.1578 19.1149 10.5829 19.2505 10 19.25C9.41713 19.2505 8.84219 19.1149 8.32094 18.8541C7.79969 18.5932 7.34652 18.2143 6.9975 17.7475C6.42094 17.8307 5.83292 17.7782 5.28022 17.5942C4.72751 17.4102 4.22538 17.0997 3.81375 16.6875C3.40114 16.2759 3.09035 15.7736 2.9061 15.2206C2.72186 14.6677 2.66926 14.0794 2.7525 13.5025C2.28568 13.1535 1.90677 12.7003 1.64593 12.1791C1.38509 11.6578 1.24951 11.0829 1.25 10.5C1.25 9.2725 1.84 8.1825 2.7525 7.4975C2.66931 6.92094 2.72181 6.33292 2.90582 5.78022C3.08984 5.22751 3.4003 4.72538 3.8125 4.31375C4.22414 3.90114 4.72643 3.59035 5.27938 3.4061C5.83232 3.22186 6.42064 3.16926 6.9975 3.2525C7.34646 2.78561 7.79961 2.40665 8.32088 2.1458C8.84214 1.88495 9.41711 1.74942 10 1.75C11.2275 1.75 12.3175 2.34 13.0025 3.2525C13.5791 3.16931 14.1671 3.22181 14.7198 3.40582C15.2725 3.58984 15.7746 3.9003 16.1863 4.3125C17.055 5.18125 17.4088 6.36875 17.2475 7.4975C17.7143 7.84652 18.0932 8.29969 18.3541 8.82094C18.6149 9.34219 18.7505 9.91713 18.75 10.5ZM14.6363 6.94625C14.833 7.09826 14.9613 7.3222 14.993 7.5688C15.0246 7.81541 14.957 8.06449 14.805 8.26125L9.4925 15.1363C9.40851 15.2449 9.30167 15.3338 9.17954 15.3966C9.0574 15.4595 8.92296 15.4947 8.7857 15.4998C8.64845 15.505 8.51175 15.4799 8.38527 15.4263C8.25879 15.3728 8.14561 15.2921 8.05375 15.19L5.24125 12.065C5.1558 11.9741 5.08935 11.867 5.0458 11.7501C5.00226 11.6332 4.98249 11.5088 4.98765 11.3841C4.99282 11.2594 5.02281 11.1371 5.07588 11.0241C5.12895 10.9112 5.20403 10.81 5.29671 10.7265C5.38939 10.643 5.49781 10.5788 5.61562 10.5377C5.73343 10.4966 5.85826 10.4795 5.98278 10.4872C6.10731 10.495 6.22903 10.5276 6.34081 10.583C6.45259 10.6384 6.55218 10.7156 6.63375 10.81L8.69625 13.1L13.3213 7.11375C13.4734 6.91719 13.6975 6.78913 13.9441 6.75771C14.1907 6.7263 14.4396 6.79412 14.6363 6.94625Z" fill="white"/>
</svg>
