<svg width="20" height="21" viewBox="0 0 20 21" fill="none" xmlns="http://www.w3.org/2000/svg">
<path d="M2.5 4.25C2.5 3.91848 2.6317 3.60054 2.86612 3.36612C3.10054 3.1317 3.41848 3 3.75 3H16.25C16.5815 3 16.8995 3.1317 17.1339 3.36612C17.3683 3.60054 17.5 3.91848 17.5 4.25V5.5C17.5 5.83152 17.3683 6.14946 17.1339 6.38388C16.8995 6.6183 16.5815 6.75 16.25 6.75H3.75C3.41848 6.75 3.10054 6.6183 2.86612 6.38388C2.6317 6.14946 2.5 5.83152 2.5 5.5V4.25Z" fill="white"/>
<path fill-rule="evenodd" clip-rule="evenodd" d="M16.25 8H3.75V15.5C3.75 16.163 4.01339 16.7989 4.48223 17.2678C4.95107 17.7366 5.58696 18 6.25 18H13.75C14.413 18 15.0489 17.7366 15.5178 17.2678C15.9866 16.7989 16.25 16.163 16.25 15.5V8ZM7.15 9.8375C7.32578 9.66194 7.56406 9.56332 7.8125 9.56332C8.06094 9.56332 8.29922 9.66194 8.475 9.8375L10 11.3625L11.525 9.8375C11.6108 9.74539 11.7143 9.67151 11.8293 9.62027C11.9443 9.56903 12.0685 9.54148 12.1943 9.53926C12.3202 9.53704 12.4453 9.5602 12.562 9.60735C12.6787 9.6545 12.7848 9.72468 12.8738 9.8137C12.9628 9.90273 13.033 10.0088 13.0802 10.1255C13.1273 10.2422 13.1505 10.3673 13.1482 10.4932C13.146 10.619 13.1185 10.7432 13.0672 10.8582C13.016 10.9732 12.9421 11.0767 12.85 11.1625L11.325 12.6875L12.85 14.2125C12.9421 14.2983 13.016 14.4018 13.0672 14.5168C13.1185 14.6318 13.146 14.756 13.1482 14.8818C13.1505 15.0077 13.1273 15.1328 13.0802 15.2495C13.033 15.3662 12.9628 15.4723 12.8738 15.5613C12.7848 15.6503 12.6787 15.7205 12.562 15.7677C12.4453 15.8148 12.3202 15.838 12.1943 15.8357C12.0685 15.8335 11.9443 15.806 11.8293 15.7547C11.7143 15.7035 11.6108 15.6296 11.525 15.5375L10 14.0125L8.475 15.5375C8.29728 15.7031 8.06222 15.7933 7.81935 15.789C7.57647 15.7847 7.34474 15.6863 7.17297 15.5145C7.00121 15.3428 6.90282 15.111 6.89853 14.8682C6.89425 14.6253 6.9844 14.3902 7.15 14.2125L8.675 12.6875L7.15 11.1625C6.97444 10.9867 6.87582 10.7484 6.87582 10.5C6.87582 10.2516 6.97444 10.0133 7.15 9.8375Z" fill="white"/>
</svg>
