<svg width="20" height="21" viewBox="0 0 20 21" fill="none" xmlns="http://www.w3.org/2000/svg">
<path d="M16.86 3.64127C16.6569 3.43812 16.4157 3.27697 16.1503 3.16702C15.8849 3.05708 15.6004 3.00049 15.3132 3.00049C15.0259 3.00049 14.7414 3.05708 14.476 3.16702C14.2106 3.27697 13.9694 3.43812 13.7663 3.64127L8.43753 8.96752C8.11841 9.28668 7.86526 9.66555 7.69253 10.0825L6.63253 12.6413C6.56153 12.8126 6.54293 13.0011 6.57909 13.183C6.61526 13.3649 6.70455 13.532 6.83568 13.6631C6.96682 13.7942 7.1339 13.8835 7.31579 13.9197C7.49768 13.9559 7.68621 13.9373 7.85753 13.8663L10.4163 12.8063C10.8332 12.6335 11.2121 12.3804 11.5313 12.0613L16.8575 6.73377C17.2674 6.32358 17.4977 5.76741 17.4977 5.18752C17.4977 4.60763 17.2674 4.05146 16.8575 3.64127H16.86Z" fill="white"/>
<path d="M5.9375 4.875C5.075 4.875 4.375 5.575 4.375 6.4375V14.5625C4.375 15.425 5.075 16.125 5.9375 16.125H14.0625C14.925 16.125 15.625 15.425 15.625 14.5625V11.75C15.625 11.5014 15.7238 11.2629 15.8996 11.0871C16.0754 10.9113 16.3139 10.8125 16.5625 10.8125C16.8111 10.8125 17.0496 10.9113 17.2254 11.0871C17.4012 11.2629 17.5 11.5014 17.5 11.75V14.5625C17.5 15.4742 17.1378 16.3485 16.4932 16.9932C15.8485 17.6378 14.9742 18 14.0625 18H5.9375C5.02582 18 4.15148 17.6378 3.50682 16.9932C2.86216 16.3485 2.5 15.4742 2.5 14.5625V6.4375C2.5 5.52582 2.86216 4.65148 3.50682 4.00682C4.15148 3.36216 5.02582 3 5.9375 3H8.75C8.99864 3 9.2371 3.09877 9.41291 3.27459C9.58873 3.4504 9.6875 3.68886 9.6875 3.9375C9.6875 4.18614 9.58873 4.4246 9.41291 4.60041C9.2371 4.77623 8.99864 4.875 8.75 4.875H5.9375Z" fill="white"/>
</svg>
